<?xml version="1.0" standalone="no"?>
<!DOCTYPE svg PUBLIC "-//W3C//DTD SVG 1.1//EN" "http://www.w3.org/Graphics/SVG/1.1/DTD/svg11.dtd">
<svg xmlns="http://www.w3.org/2000/svg">
<metadata>Copyright (C) 2015 by original authors @ fontello.com</metadata>
<defs>
<font id="bnkdash" horiz-adv-x="1000" >
<font-face font-family="bnkdash" font-weight="400" font-stretch="normal" units-per-em="1000" ascent="850" descent="-150" />
<missing-glyph horiz-adv-x="1000" />
<glyph glyph-name="cat" unicode="&#xe800;" d="m137 578c-73 0-132 59-132 132 0 73 59 132 132 132s132-59 132-132c0-73-59-132-132-132m0 185c-29 0-53-24-53-53s24-54 53-54 53 24 53 54c0 29-24 53-53 53m367-185c-73 0-133 59-133 132s60 132 133 132 132-59 132-132c0-73-59-132-132-132m0 185c-30 0-54-24-54-53s24-54 54-54c29 0 53 24 53 54s-24 53-53 53m359-185c-73 0-133 59-133 132s60 132 133 132 132-59 132-132-59-132-132-132m0 185c-30 0-54-24-54-53s24-54 54-54 53 24 53 54-24 53-53 53m-727-545c-73 0-132 60-132 133s59 132 132 132 132-59 132-132-59-133-132-133m0 186c-29 0-53-24-53-53 0-30 24-54 53-54s54 24 54 54c0 29-24 53-54 53m367-186c-73 0-132 60-132 133s59 132 132 132 132-60 132-132-59-133-132-133m0 186c-30 0-54-24-54-53 0-30 24-54 54-54 29 0 53 24 53 54 0 29-24 53-53 53m359-186c-73 0-132 60-132 133s59 132 132 132 132-60 132-132c0-73-59-133-132-133m0 186c-30 0-54-24-54-53 0-30 24-54 54-54s53 24 53 54c0 29-24 53-53 53m-722-548c-73 0-132 60-132 133s59 132 132 132 132-60 132-132c0-73-59-133-132-133m0 186c-29 0-53-24-53-53s24-54 53-54 53 24 53 54c0 29-24 53-53 53m367-186c-73 0-133 60-133 133s60 132 133 132 132-60 132-132c0-73-59-133-132-133m0 186c-30 0-54-24-54-53s24-54 54-54c29 0 53 24 53 54 0 29-24 53-53 53m359-186c-73 0-132 60-132 133s59 132 132 132 132-60 132-132c0-73-59-133-132-133m0 186c-30 0-54-24-54-53s24-54 54-54 53 24 53 54c0 29-24 53-53 53" horiz-adv-x="1000" />
<glyph glyph-name="arrow_l" unicode="&#xe801;" d="m674-65c-11 0-22 5-30 13l-340 375c-14 15-14 39 0 54l340 375c15 16 40 17 57 2 16-14 17-40 2-56l-302-333c0 0-8-9-8-15 0-6 8-15 8-15l302-333c15-16 14-42-3-57-7-6-17-10-26-10z" horiz-adv-x="1000" />
<glyph glyph-name="proto" unicode="&#xe802;" d="m733 697c-9 18-23 33-40 43-22 13-47 18-70 20-5 19-14 35-27 48-18 18-43 31-73 37-20 5-37 5-39 5h0-205c-4 0-53 0-84-18-35-20-46-35-65-70-18-1-36-5-51-11-19-8-35-19-48-34-33-36-32-80-31-92v-539c0-24 4-46 12-64 7-18 17-33 31-44 29-25 64-30 84-30 5 0 10 1 13 1h327l-40-40c-14-13-14-35 0-49 7-7 16-10 25-10 8 0 17 3 24 10l99 99c13 13 13 35 0 49l-94 94c-14 13-36 13-49 0-14-14-14-36 0-50l33-33h-327c-2 0-3 0-5-1-2 0-28-2-45 13-12 10-18 29-18 55v540c0 2 0 3 0 4 0 3-2 25 13 42 10 10 24 17 43 20 2-11 7-23 16-34 10-12 22-20 37-26 16-6 34-9 54-9h269c3 0 6-1 11-1 19 0 55 4 83 28 9 9 19 22 26 41 47-6 56-26 56-61v-479c0-19 16-34 35-34 19 0 35 15 35 34v479c0 26-5 48-15 67z m-184 5c-11-10-34-10-41-10-2 0-3 0-4 0h-271c-26 0-34 7-37 10-13 13-7 32-7 32l0 0c8 25 25 35 47 41 21 5 42 5 43 6h205c1 0 22-1 43-9 24-10 30-25 31-39 0-2-1-4-1-6 0-17-6-23-8-25z m13-234c19 0 35 16 35 35 0 19-16 35-35 35h-360c-19 0-35-16-35-35 0-19 16-35 35-35h360z m1-67h-360c-19 0-34-16-34-35 0-19 15-35 34-35h360c20 0 35 16 35 35 0 19-15 35-35 35z m-359-146c-19 0-35-16-35-35 0-19 16-35 35-35h266c19 0 35 16 35 35 0 19-16 35-35 35h-266z" horiz-adv-x="748" />
<glyph glyph-name="settings" unicode="&#xe803;" d="m952 312c22 0 40 18 40 40s-18 40-40 40h-36c-3 28-9 55-17 81l41 17c20 9 30 32 21 52-8 20-32 30-52 21l-40-16c-13 25-29 48-47 70l26 27c16 15 16 40 0 56-16 15-41 15-56 0l-27-27c-20 17-42 32-65 44l16 38c8 21-2 44-22 52-20 9-44-1-52-22l-15-36c-28 9-57 15-87 17v38c0 22-18 40-40 40s-40-18-40-40v-37c-26-3-53-8-78-15l-13 31c-9 20-32 30-52 21-21-8-30-31-22-52l13-30c-26-14-51-30-74-49l-26 25c-15 16-40 16-56 0-15-15-15-40 0-56l26-25c-18-22-33-44-46-68l-28 11c-20 8-44-1-52-22-8-20 1-43 22-52l27-11c-8-27-14-55-17-84h-36c-22 0-40-17-40-39s18-40 40-40h36c3-30 8-59 17-87l-26-11c-20-9-30-32-21-52 6-16 21-25 36-25 6 0 11 1 16 3l27 12c12-24 27-46 44-67l-25-25c-15-15-15-41 0-56 8-8 18-12 28-12 11 0 21 4 29 12l25 25c24-20 50-37 78-51l-12-30c-9-20 1-43 21-52 5-2 10-3 15-3 16 0 31 10 37 25l13 31c24-7 49-12 75-14v-35c0-22 17-40 39-40 22 0 40 18 40 40v35c31 3 61 9 91 18l14-35c7-15 22-24 37-24 5 0 11 1 16 3 20 8 29 32 21 52l-15 36c22 13 43 27 62 43l26-25c8-8 18-12 28-12 11 0 21 4 29 12 15 15 15 40 0 56l-26 26c19 23 36 48 49 75l39-16c5-2 10-3 15-3 16 0 31 9 37 24 9 21-1 44-22 52l-39 17c7 25 12 52 14 78l36 0 0 0z m-452-300c-187 0-338 152-338 339s151 338 338 338c186 0 338-152 338-338s-152-339-338-339z" horiz-adv-x="1000" />
<glyph glyph-name="upload" unicode="&#xe804;" d="m812 599h-41c-14-1-33-9-33-37 0-30 22-37 36-38h38c38 0 69-31 69-68v-458c0-38-31-69-69-69h-623c-38 0-68 31-68 69v458c0 38 31 68 68 68h20c10 1 36 6 36 32 0 32-36 43-36 43h-20c-79 0-143-64-143-143v-458c0-79 64-143 143-143h623c79 0 143 64 143 143v458c0 79-64 143-143 143m-310-427c-21 0-37 16-37 37v518l-84-76c-15-14-39-13-52 2-14 15-13 39 2 52l146 133c1 2 3 3 5 4 2 2 5 3 9 4 3 1 7 2 11 2l0 0c4 0 8-1 12-2 3-1 6-2 9-4 1-1 3-3 5-4l145-133c16-14 17-37 3-52-14-15-37-16-53-3l-83 77v-518c-1-21-17-37-38-37z" horiz-adv-x="1000" />
<glyph glyph-name="zaem" unicode="&#xe805;" d="m895 58c-8 42-17 73-27 98-11 27-24 47-41 65-16 16-36 29-62 42-23 11-49 21-87 34-41 15-69 37-81 64-6 14-8 30-6 47 1 9 4 16 5 19 6 6 20 23 35 54 10 23 19 48 25 75 8 34 12 72 13 111 1 30-3 56-11 79-8 20-19 37-34 51-12 12-26 21-42 29-13 5-27 10-41 12-18 4-32 4-39 4-8 0-22 0-39-4-15-2-29-7-41-12-16-8-30-17-42-29-15-14-27-31-34-51-9-23-13-49-12-79 1-39 6-77 13-111 7-27 15-52 26-75 14-31 29-48 35-54 1-4 3-10 4-19 2-17 0-33-6-47-12-27-39-49-81-64-37-13-64-23-87-34-26-13-46-26-61-42-18-17-31-38-42-65-10-25-18-56-26-98-1-4-4-26 17-52 20-25 57-45 108-60 56-16 130-25 220-28 1 0 22 0 22 14 0 13-21 15-21 15-86 3-156 11-210 26-56 16-83 36-95 50-14 16-12 28-12 29 14 78 31 120 60 148 29 30 73 47 137 70 27 9 49 21 65 36 15 13 26 28 33 44 20 46 2 89 1 91l-1 3-3 2c0 0-15 14-30 48-16 32-34 89-36 174-2 47 11 84 36 108 22 21 49 30 68 34 13 2 24 3 31 3l0 0c0 0 1 0 2 0 3 0 5 0 5 0l0 0 0 0c18 0 65-4 98-36 26-25 38-61 37-109-2-84-20-140-35-172-16-34-31-50-32-50l-2-2-1-3c-1-2-19-45 0-91 7-16 18-31 33-44 17-15 39-27 65-36 65-23 109-40 138-70 28-28 45-70 60-148v0l0 0 0 0c0-2 1-14-13-29-7-9-21-20-43-31-4-4-6-9-2-16 3-6 7-8 11-9l14 4c19 10 34 22 44 35 21 26 17 48 17 52m-758-6l0 0v0c0 0 0 0 0 0m503-202c-37 0-83 7-134 30-9 4-12 14-8 22 3 8 13 11 21 8 135-61 228-2 229-2 7 5 17 3 22-4 5-8 3-18-5-23-1 0-28-18-74-26-14-3-31-5-51-5z m5 66c-37 0-83 7-135 30-8 4-11 13-8 21 4 8 14 12 22 8 56-25 112-33 165-23 40 7 63 22 64 22 7 5 17 3 22-5 5-7 3-17-5-22-1-1-28-18-74-27-14-2-31-4-51-4z m0 62c-37 0-83 7-135 30-5 2-8 7-9 13-1 5 2 11 6 14 2 1 32 24 80 35 44 11 111 13 183-34 5-3 8-8 8-14-1-5-3-10-8-13-1-1-28-18-74-27-14-2-31-4-51-4z m-91 47c46-16 91-19 135-11 15 2 28 6 38 10-42 20-86 26-132 15-16-4-30-9-41-14z" horiz-adv-x="1000" />
<glyph glyph-name="fin" unicode="&#xe806;" d="m79 448c6 0 12 2 17 5l268 144 309-105c10-4 21-2 30 3l242 155c18 11 24 36 13 54s-33 25-50 14l-229-146-307 105c-10 3-19 2-28-2l-281-152c-18-9-26-33-17-53 7-14 20-22 33-22z m829 31l-228-146-308 105c-9 3-19 2-27-3l-282-151c-18-10-25-34-16-53 6-14 19-22 33-22 5 0 11 2 16 4l268 145 309-106c10-3 21-2 30 4l243 155c17 11 23 36 13 54-10 19-33 25-51 14z m0-225l-228-146-308 105c-9 3-19 2-27-2l-282-152c-18-10-25-33-16-53 6-14 19-22 33-22 5 0 11 2 16 5l268 144 309-105c10-4 21-2 30 3l243 155c17 12 23 36 13 55-10 18-33 25-51 13z" horiz-adv-x="1000" />
<glyph glyph-name="th-outline" unicode="&#xe807;" d="m209 142q44 0 74-31t30-73l0-104q0-44-31-74t-73-31l-105 0q-43 0-73 31t-31 74l0 104q0 42 30 73t74 31l105 0z m0-208l0 104-105 0 0-104 105 0z m0 573q44 0 74-31t30-73l0-105q0-43-30-73t-74-31l-105 0q-44 0-74 31t-30 73l0 105q0 42 30 73t74 31l105 0z m0-209l0 105-105 0 0-105 105 0z m0 574q42 0 73-31t31-74l0-104q0-43-30-73t-74-31l-105 0q-44 0-74 31t-30 73l0 104q0 43 31 74t73 31l105 0z m0-209l0 104-105 0 0-104 105 0z m364-521q43 0 74-31t31-73l0-104q0-44-32-74t-73-31l-104 0q-43 0-73 31t-31 74l0 104q0 42 30 73t74 31l104 0z m0-208l0 104-104 0 0-104 104 0z m0 573q43 0 74-31t31-73l0-105q0-43-31-73t-74-31l-104 0q-44 0-74 31t-30 73l0 105q0 42 30 73t74 31l104 0z m0-209l0 105-104 0 0-105 104 0z m0 574q42 0 73-31t32-74l0-104q0-43-31-73t-74-31l-104 0q-44 0-74 31t-30 73l0 104q0 43 31 74t73 31l104 0z m0-209l0 104-104 0 0-104 104 0z m365-521q42 0 73-31t30-73l0-104q0-44-30-74t-73-31l-104 0q-44 0-75 31t-30 74l0 104q0 42 30 73t75 31l104 0z m0-208l0 104-104 0 0-104 104 0z m0 573q42 0 73-31t30-73l0-105q0-43-30-73t-73-31l-104 0q-44 0-75 31t-30 73l0 105q0 42 30 73t75 31l104 0z m0-209l0 105-104 0 0-105 104 0z m0 574q42 0 73-31t30-74l0-104q0-43-30-73t-73-31l-104 0q-44 0-75 31t-30 73l0 104q0 43 30 74t75 31l104 0z m0-209l0 104-104 0 0-104 104 0z" horiz-adv-x="1041" />
<glyph glyph-name="exit" unicode="&#xe808;" d="m743 18v45c-1 14-9 35-36 35-30 0-36-24-37-38v-41c0-41-31-74-68-74h-449c-37 0-68 33-68 74v669c0 41 31 74 68 74h450c37 0 67-33 67-74v-21c1-11 6-39 31-39 32 0 42 39 42 39v21c0 85-63 154-140 154h-450c-78 0-141-69-141-154v-670c0-85 63-154 141-154h450c77 0 140 69 140 154m-420 333c0 22 17 40 37 40h509l-75 91c-14 16-13 41 2 56 15 15 38 14 52-3l130-156c1-2 3-4 4-6 2-2 3-6 4-9 1-4 2-8 2-12l0 0c0-5-1-9-2-13-1-3-3-6-4-9-2-2-3-4-4-5l-131-157c-13-17-36-18-51-3-15 15-16 40-2 57l75 90h-509c-20-1-37 17-37 39z" horiz-adv-x="1000" />
<glyph glyph-name="spin5" unicode="&#xe809;" d="m462 850c-6 0-11-5-11-11l0-183 0 0c0-6 5-11 11-11l69 0c1 0 1 0 1 0 7 0 12 5 12 11l0 183 0 0c0 6-5 11-12 11l-69 0c0 0 0 0-1 0z m250-47c-4 1-8-2-10-5l-91-158 0 0c-4-6-2-13 4-16l60-35c0 0 0 0 0 0 6-3 13-1 16 4l91 158c3 6 2 13-4 16l-61 35c-1 1-3 1-5 1z m-428-2c-2 0-4-1-6-2l-61-35c-5-3-7-10-4-16l91-157c0 0 0 0 0 0 3-6 10-8 16-5l61 35c5 4 7 11 4 16l-91 157c0 1 0 1 0 1-2 4-6 6-10 6z m620-163c-2 0-4 0-6-1l-157-91c0 0 0 0 0 0-6-3-8-10-5-16l35-61c4-5 11-7 16-4l157 91c1 0 1 0 1 0 6 3 7 10 4 16l-35 61c-2 3-6 5-10 5z m-810-4c-5 0-9-2-11-6l-35-61c-3-5-1-12 4-15l158-92 0 0c6-3 13-1 16 5l35 60c0 0 0 0 0 0 3 6 1 13-4 16l-158 91c-2 1-4 2-5 2z m712-235l0 0c-6 0-11-5-11-11l0-69c0-1 0-1 0-1 0-7 5-12 11-12l183 0 0 0c6 0 11 5 11 12l0 69c0 0 0 0 0 1 0 6-5 11-11 11l-183 0z m-794-5l0 0c-7 0-12-5-12-12l0-69c0 0 0 0 0-1 0-6 5-11 12-11l182 0 0 0c6 0 11 5 11 11l0 69c0 1 0 1 0 1 0 7-5 12-11 12l-182 0z m772-153c-4 0-8-2-10-6l-34-60c-1 0-1 0-1 0-3-6-1-13 4-16l158-91c6-3 13-2 16 4l35 61c3 5 1 12-4 15l-158 91 0 0c-2 1-4 2-6 2z m-566-5c-1 0-3 0-5-1l-157-91c0 0-1 0-1 0-5-3-7-11-4-16l35-61c3-5 10-7 16-4l157 91c0 0 0 0 0 0 6 3 8 10 5 16l-35 61c-3 3-7 5-11 5z m468-121c-2 0-4 0-6-1l-61-35c-5-4-7-11-4-16l91-157c0-1 0-1 0-1 3-6 11-7 16-4l61 35c5 3 7 10 4 16l-91 157c0 0 0 0 0 0-2 4-6 6-10 6z m-367-3c-4 1-8-2-10-5l-91-158c-3-6-1-13 4-16l61-35c5-3 12-1 15 4l92 158 0 0c3 6 1 13-5 16l-60 34c0 1 0 1 0 1-2 1-4 1-6 1z m149-57c-7 0-12-5-12-11l0-183 0 0c0-6 5-11 12-11l69 0c0 0 0 0 1 0 6 0 11 5 11 11l0 183 0 0c0 6-5 11-11 11l-69 0c-1 0-1 0-1 0z" horiz-adv-x="1000" />
<glyph glyph-name="errors" unicode="&#xe80a;" d="m990 66c-6 24-16 43-18 46l-1 1c-47 82-95 164-143 246-63 110-127 220-191 329-4 8-8 15-13 23-2 3-4 6-5 9-1 1-1 1-1 1l-2 3c-16 28-33 49-52 63-20 15-42 23-64 23-29 0-58-13-83-38-10-9-18-19-24-27l-8-12c-1-2-2-4-3-5l-1 0c0-2-1-3-2-5-98-169-198-341-295-508l-56-96 0-1c-2-3-12-22-18-47-10-37-6-71 10-98 12-21 30-36 55-47 24-10 53-15 89-15h688c31 0 57 5 79 14 22 10 39 24 51 44 15 25 18 59 8 97z m-81-55c-6-10-27-16-57-16h-688c-38 0-64 8-72 20-9 16 3 48 10 61l55 96c93 160 189 325 283 488l13 23c1 0 1 1 1 1 14 24 33 41 45 41 9 0 25-12 44-44l1-2c0 0 1 0 1-1 0 0 0 0 0-1 2-3 4-7 6-10 5-7 9-15 13-22 61-104 126-216 191-329 48-82 95-164 143-246 9-16 18-47 11-59z m-362 246c0-26-21-47-47-47s-48 21-48 47 21 47 47 47 48-21 48-47z" horiz-adv-x="1000" />
<glyph glyph-name="bizadm" unicode="&#xe80b;" d="m996 9c-1 31-10 62-26 92-16 27-37 54-64 78-52 46-123 83-205 105-60 17-83 37-90 47-3 4-5 7-5 10 30 34 105 138 94 300-3 37-11 70-24 98-12 25-28 46-48 63-25 21-57 35-91 41-16 2-28 3-37 2-8 1-21 0-36-2-35-6-66-20-91-41-20-17-37-38-49-63-13-28-21-61-23-98-11-162 64-266 94-300-1-3-2-6-5-9-8-11-30-31-91-48-82-22-153-59-205-105-27-24-48-50-63-78-17-30-26-61-27-92-1-14 3-36 23-57 22-24 61-42 123-57 43-10 97-19 161-26 60-7 117-10 157-12 4-1 8-2 12-2 1 0 1 0 1 0 1 0 8 0 19 0 11 0 18 0 19 0 0 0 1 0 1 0 4 0 9 1 13 2 39 2 96 5 157 12 63 7 118 16 161 26 61 15 100 33 123 57 19 21 22 43 22 57z m-154-29c-39-10-90-19-152-26-55-6-108-10-147-12v83c0 23-19 42-43 42-23 0-42-19-42-42v-83c-39 2-92 6-147 12-62 7-113 16-152 26-50 13-66 26-70 30 2 36 24 72 61 106 43 38 102 68 171 87 76 21 126 53 147 96 20 37 9 69 7 75-2 6-5 11-10 15-2 2-24 24-45 64-28 55-40 117-35 182 3 47 17 81 41 102 22 19 49 23 64 24 3-1 6-1 9 0 0 0 0 0 1 0 1 0 1 0 1 0 0 0 0 0 0 0v0c8 0 44 0 72-24 25-20 39-55 42-102 5-66-7-127-35-182-21-40-43-62-45-64-4-4-8-9-10-16-2-6-13-37 7-75 21-42 71-74 147-95 69-19 128-49 171-88 37-33 59-70 61-105-4-5-20-17-69-30z m-342 233c23 0 41-19 41-42s-18-42-41-42c-23 0-42 19-42 42s19 42 42 42z" horiz-adv-x="1000" />
<glyph glyph-name="calendar" unicode="&#xe80c;" d="m0-66l0 738q0 35 24 60t60 24l135 0 0 63q0 13 9 22t22 9 22-9 9-22l0-63 188 0 0 63q0 13 9 22t22 9 22-9 9-22l0-63 188 0 0 63q0 13 9 22t22 9 22-9 9-22l0-63 135 0q35 0 60-24t24-60l0-738q0-35-24-60t-60-24l-832 0q-35 0-60 24t-24 60z m63 0q0-10 5-16t16-6l832 0q10 0 16 6t5 16l0 738q0 10-5 16t-16 6l-135 0 0-63q0-13-9-22t-22-9-22 9-9 22l0 63-188 0 0-63q0-13-9-22t-22-9-22 9-9 22l0 63-188 0 0-63q0-13-9-22t-22-9-22 9-9 22l0 63-135 0q-10 0-16-6t-5-16l0-738z m156 135l0 94 125 0 0-94-125 0z m0 156l0 94 125 0 0-94-125 0z m0 156l0 94 125 0 0-94-125 0z m219-312l0 94 125 0 0-94-125 0z m0 156l0 94 125 0 0-94-125 0z m0 156l0 94 125 0 0-94-125 0z m218-312l0 94 125 0 0-94-125 0z m0 156l0 94 125 0 0-94-125 0z m0 156l0 94 125 0 0-94-125 0z" horiz-adv-x="1000" />
<glyph glyph-name="pie" unicode="&#xe80d;" d="m891 601c-16 29-37 56-63 78-87 88-204 136-328 136-4 0-8 0-12 0l-1 0v0c-119-3-231-51-316-136-88-88-136-205-136-329 0-124 48-241 136-329 88-88 205-136 329-136 124 0 241 48 329 136 88 88 136 205 136 329 0 90-26 177-74 251z m-391-686c-240 0-435 195-435 435 0 236 188 428 422 435v-440l448 2c-2-239-196-432-435-432z" horiz-adv-x="1000" />
<glyph glyph-name="popup" unicode="&#xe80e;" d="m700 750q42 0 71-29t29-71l0-400q0-40-29-70t-71-30l-400 0q-40 0-70 30t-30 70l0 402q0 40 29 69t71 29l400 0z m0-500l0 400-400 0 0-400 400 0z m-600 100l0-300 300 0 0-100-300 0q-40 0-70 30t-30 70l0 300 100 0z" horiz-adv-x="800" />
<glyph glyph-name="down-open-mini" unicode="&#xe80f;" d="m405 470q22 26 48 0 26-22 0-48l-196-192q-22-22-48 0l-196 192q-26 26 0 48 24 24 50 0l170-156z" horiz-adv-x="466" />
<glyph glyph-name="cred" unicode="&#xe810;" d="m843 636h-133c-8 0-14-6-14-14s6-14 14-14h133c47 0 85-38 85-85v-120h-838v120c0 47 38 85 85 85h107c7 0 14 6 14 14s-7 14-14 14h-107c-62 0-113-51-113-113v-429c0-62 51-113 113-113h668c62 0 113 51 113 113v429c0 62-51 113-113 113z m0-627h-668c-47 0-85 38-85 85v281h838v-281c0-47-38-85-85-85z m-500 626c-5 5-5 14 1 19 6 6 14 5 20 0l105-112 190 211c5 6 14 6 20 1 6-5 6-14 1-20l-200-222c-3-3-6-5-10-5 0 0 0 0 0 0-4 0-8 2-11 5l-116 123z" horiz-adv-x="1000" />
<glyph glyph-name="agreement" unicode="&#xe811;" d="m671 626c-2 2-5 4-8 5l-187 59c-75 23-124-18-137-31-8-7-14-16-17-23l-83-196c-5-11-3-26 4-41 11-21 30-37 53-42 26-6 53 2 74 23 5 6 10 12 13 17l28 52c4 8 11 17 18 24 24 24 36 13 41 9 42-41 262-262 262-262 7-7 6-22-4-32-10-10-25-11-32-4l-62 62c-8 8-21 8-29 0-8-8-8-21 0-29l62-62c8-7 6-22-4-32s-24-11-32-4l-62 62c-8 8-21 8-29 0-8-8-8-21 0-29l62-61c8-8 6-23-4-33-9-10-24-11-32-3l-62 61c-8 8-21 8-29 0-8-8-8-20 0-28l62-62c8-8 6-23-3-33-10-9-25-11-33-3l-75 75c11 16 8 40-8 56-18 17-45 19-61 3 15 16 14 44-4 61-18 18-45 20-61 4 16 16 14 43-4 61-18 18-45 20-61 4 16 16 14 43-4 61-16 17-41 19-57 6l-122 122c-8 8-21 8-29 0-8-8-8-21 0-29l122-121-36-36c-16-16-15-43 3-61 18-18 45-20 61-4-16-16-14-43 4-61 18-18 45-20 61-4-16-16-14-43 4-61 18-18 45-20 61-4-16-16-14-43 4-61 18-18 45-19 61-3l38 38 75-75c23-24 64-22 90 4 12 12 19 28 20 44 16 1 32 8 44 20 13 13 20 29 21 45 16 1 31 8 44 20 13 13 20 29 20 45 16 1 32 7 45 20 26 26 27 66 4 90l-32 31 130 130c8 8 8 21 0 29l-188 187z m0 0l307-46-165 165c-16 16-42 16-58 0l-57-57c-16-16-16-42 0-58l165-165c16-16 41-16 57 0l58 58c16 16 16 42 0 57l0 0z m220-130c-18 0-33 15-33 34 0 18 15 33 33 33 19 0 34-15 34-33 0-19-15-34-34-34l0 0z m0 0" horiz-adv-x="1000" />
<glyph glyph-name="eye-1" unicode="&#xe812;" d="m929 314q-85 132-213 197 34-58 34-125 0-104-73-177t-177-73-177 73-73 177q0 67 34 125-128-65-213-197 75-114 187-182t242-68 242 68 187 182z m-402 215q0 11-8 19t-19 7q-70 0-120-50t-50-119q0-12 8-19t19-8 19 8 8 19q0 48 34 82t82 34q11 0 19 8t8 19z m473-215q0-19-11-38-78-129-210-206t-279-77-279 77-210 206q-11 19-11 38t11 39q78 128 210 205t279 78 279-78 210-205q11-20 11-39z" horiz-adv-x="1000" />
<glyph glyph-name="banking2" unicode="&#xe813;" d="m923-28h-850c-23 0-42-19-42-43 0-23 19-42 42-42h850c23 0 42 19 42 42 0 24-19 43-42 43l0 0z m0 0l-797 110c-23 0-42-19-42-42 0-24 19-43 42-43h744c23 0 42 19 42 43 0 23-19 42-42 42h-11v383h11c12 0 21 9 21 21 0 12-10 21-21 21h-744c-12 0-21-9-21-21 0-12 9-21 21-21h11v-383h-11z m-149 493v-383h-127v383h127z m-212 0v-383h-128v383h128z m-340 0h127v-383h-127v383z m0 0l-149 80h850c24 0 43 19 43 43 0 19-12 34-29 40l-422 190c-11 5-23 5-34 0l-425-191c-19-8-29-28-25-48 5-20 22-34 42-34l0 0z m-149 80" horiz-adv-x="1000" />
<glyph glyph-name="ascending24" unicode="&#xe814;" d="m976-66c0 29-24 53-53 53h-793v794c0 29-24 53-53 53-29 0-53-24-53-53v-794c0-58 48-106 106-106h793c29 0 53 24 53 53l0 0z m0 0l-604 459-191-245c-9-12-6-29 5-38l42-32c11-9 28-7 37 5l163 209c8 12 22 19 36 20l180 18c14 1 27 8 36 19l185 224 44-37c17-14 42-2 43 20l7 180c0 17-15 30-32 27l-180-36c-22-5-29-32-12-47l48-40-157-190c-9-11-22-18-36-19l-182-18c-14-1-27-8-36-20l0 0z m-604 459" horiz-adv-x="1000" />
<glyph glyph-name="workers1" unicode="&#xe815;" d="m495 617h1c56 0 101 45 101 101 0 9-1 17-3 25-11 44-51 76-98 76h-1c-56 0-101-45-101-101 0-8 1-17 4-25 11-44 50-76 97-76l0 0z m0 0l0 0h1c56 0 101 45 101 101 0 9-1 17-3 25-11 44-51 76-98 76h-1c-56 0-101-45-101-101 0-8 1-17 4-25 11-44 50-76 97-76l0 0z m0 0l107-42h-25l-25-126h-30l-8 84c3 13 8 25 14 38 0 0 1 2 2 3h-1c0 0 0 1 0 1h-67c0-1 0-1 0-1h0c1-1 2-3 2-3 5-11 10-22 13-33 0-1 0-3 1-4l-8-85h-30l-25 126h-25c-39 0-70-31-70-70v-202c0-38 31-69 70-69h8v-294c0-27 22-49 49-49 26 0 46 19 49 44 3-25 23-44 49-44 27 0 49 22 49 49v294h8c39 0 70 31 70 69v202c-1 38-32 70-70 70l0 0z m107-42l156 42h1c55 0 101 45 101 101 0 9-2 17-4 25-11 44-51 76-98 76h-1c-55 0-101-45-101-101 0-9 2-17 4-25 11-44 50-76 98-76l0 0z m156 42l0 0h1c55 0 101 45 101 101 0 9-2 17-4 25-11 44-51 76-98 76h-1c-55 0-101-45-101-101 0-9 2-17 4-25 11-44 50-76 98-76l0 0z m0 0l106-42h-25l-25-126h-30l-8 84c3 13 8 25 14 38 0 0 1 2 2 3h-1c0 0 0 1 0 1h-67c0-1 0-1 0-1h0c1-1 2-3 2-3 5-11 10-22 13-33 0-1 0-3 1-4l-8-85h-27v-146c0-35-18-66-45-84v-279c0-27 22-49 49-49 25 0 46 19 49 44 3-25 23-44 48-44 27 0 49 22 49 49v294h9c39 0 70 31 70 69v202c0 38-31 70-70 70l0 0z m106-42l-631 42h1c56 0 101 45 101 101 0 9-1 17-3 25-11 44-51 76-98 76h-1c-56 0-101-45-101-101 0-9 1-17 4-25 11-44 50-76 97-76l0 0z m-631 42l0 0h1c56 0 101 45 101 101 0 9-1 17-3 25-11 44-51 76-98 76h-1c-56 0-101-45-101-101 0-9 1-17 4-25 11-44 50-76 97-76l0 0z m0 0l54-314v145h-27l-8 85c2 13 8 25 14 38 0 0 1 2 1 3h0c0 0 0 0 0 0h-67c0 0 0 0 0 0h0c1-1 2-3 2-3 5-11 10-22 12-33 1-2 1-3 1-5l-7-85h-30l-25 126h-26c-38 0-69-31-69-69v-202c0-38 31-69 69-69h9v-294c0-27 22-49 49-49 25 0 46 19 49 44 3-25 23-44 48-44 27 0 49 22 49 49v279c-26 18-44 49-44 84l0 0z m54-314" horiz-adv-x="1000" />
<glyph glyph-name="finance-and-business4" unicode="&#xe816;" d="m925 606h-199c28-24 51-53 69-85h130c24 0 43 19 43 43 0 23-19 42-43 42l0 0z m0 0l0-107h-118c13-26 22-55 27-85h91c24 0 43 19 43 43 0 23-19 42-43 42l0 0z m0-107l0 215h-314c-19 0-34-12-40-28 47-10 90-30 128-57h227c23 0 42 19 42 42 0 24-19 43-43 43l0 0z m0 215l-314 22h315c23 0 42 19 42 42 0 24-19 43-42 43h-315c-24 0-43-19-43-43 0-23 19-42 43-42l0 0z m-314 22l314-344h-87c1-13 2-26 2-39 0-16-1-31-3-46h88c24 0 43 19 43 43 0 23-19 42-43 42l0 0z m314-344l0-107h-92c-6-30-16-59-30-85h122c24 0 43 19 43 42 0 24-19 43-43 43l0 0z m0-107l0-108h-134c-20-32-44-61-73-85h207c24 0 43 19 43 43 0 23-19 42-43 42l0 0z m0-108l-850 137h87c-1 13-2 26-2 39 0 16 1 31 3 46h-88c-24 0-43-19-43-42 0-24 19-43 43-43l0 0z m-850 137l0-107h118c-13 26-22 55-28 85h-90c-24 0-43-19-43-43 0-23 19-42 43-42l0 0z m0-107l0 214h92c6 30 16 59 30 85h-122c-24 0-43-19-43-42 0-24 19-43 43-43l0 0z m0 214l0 107h134c19 33 44 61 73 85h-207c-24 0-43-19-43-42 0-24 19-43 43-43l0 0z m0 107l0-429h199c-28 25-51 53-69 85h-130c-24 0-43-19-43-42 0-24 19-43 43-43l0 0z m0-429l0-107h315c18 0 33 12 39 28-47 10-90 30-128 57h-226c-24 0-43-19-43-42 0-24 19-43 43-43l0 0z m0-107l315-22h-315c-24 0-43-19-43-42 0-24 19-43 43-43h315c23 0 42 19 42 43 0 23-19 42-42 42l0 0z m315-22l110 681c-164 0-298-134-298-298 0-164 134-298 298-298 164 0 298 134 298 298 0 164-134 298-298 298l0 0z m110 170c-117 0-213 96-213 213 0 117 96 213 213 213s213-96 213-213c0-117-96-213-213-213l0 0z m0 0l12 242v73c43-1 43-42 68-42 13 0 24 9 24 24 0 38-62 57-92 58v20c0 7-5 13-11 13-7 0-12-6-12-13v-20c-48-2-92-29-92-82 0-43 35-68 92-78v-81c-64 3-30 56-74 56-14 0-24-9-24-24 0-31 33-70 98-71v-24c0-7 5-14 12-14 6 0 11 7 11 14v24c58 3 97 29 97 81 0 60-45 75-97 86l0 0z m-11 246c-29 6-43 17-43 36 0 17 17 32 43 33v-69z m23-132v77c21-5 48-13 48-39 0-26-24-36-48-38l0 0z m0 0" horiz-adv-x="1000" />
<glyph glyph-name="marketing8" unicode="&#xe817;" d="m378 497l-57 54c7 12 11 26 11 40 0 46-38 84-84 84s-84-38-84-84c0-46 37-84 84-84 16 0 31 5 44 13l57-53c8 11 18 21 29 30l0 0z m0 0l239 7 75 127c8-3 15-4 23-4 47 0 84 38 84 84 0 46-37 84-84 84-46 0-83-38-83-84 0-23 9-44 24-59l-75-126c13-6 25-13 36-22l0 0z m239 7l259-106c-36 0-66-23-78-55l-105 11c0-1 0-2 0-3 0-13-1-27-4-40l105-10c6-40 40-71 82-71 47 0 84 38 84 84 0 47-37 84-84 84l0 0z m259-106l-288-330-23 102c-14-4-27-8-42-9l24-102c-27-14-46-42-46-75 0-46 38-83 84-83 47 0 84 37 84 83 0 46-36 83-81 84l0 0z m-288-330l-274 243-130-44c-15 23-41 38-70 38-47 0-84-37-84-84s38-84 84-84 84 38 84 84c0 2-1 4-1 6l131 44c-6 12-11 26-14 40l0 0z m-274 243l331 40c0-79-64-144-143-144-80 0-144 65-144 144 0 80 64 144 144 144 79 0 143-64 143-144l0 0z m331 40" horiz-adv-x="1000" />
<glyph glyph-name="monitor7" unicode="&#xe818;" d="m908 780h-824c-31 0-57-26-57-57v-593c0-31 26-57 57-57h824c31 0 57 26 57 57v593c0 31-26 57-57 57l0 0z m-14-608h-796v528h796v-528z m0 0l-504-126-108-110h429l-108 110h-213z m-504-126l-170 232c21 0 38 17 38 38 0 4-1 7-2 11 49 39 135 109 174 139 6-4 14-7 22-7 6 0 13 2 18 5 26-21 68-58 99-84 0-2-1-4-1-6 0-22 17-39 38-39 21 0 38 17 38 39 0 3-1 7-2 10l99 89c5-3 11-4 17-4 21 0 39 17 39 38 0 21-18 38-39 38-21 0-38-17-38-38 0-5 1-10 3-14-28-25-70-64-97-88-6 4-12 7-20 7-9 0-17-4-23-9-26 22-66 56-96 81 2 4 3 8 3 13 0 21-17 38-38 38-21 0-38-17-38-38 0-5 1-9 2-13l-175-137c-6 5-13 8-21 8-21 0-39-18-39-39s18-38 39-38l0 0z m-170 232" horiz-adv-x="1000" />
<glyph glyph-name="seo15" unicode="&#xe819;" d="m942 617l-115 100-114 100-115-100-114-100h125c-42-259-281-460-554-417-12 1-16-15-5-19 339-118 730 76 786 436h106z m0 0l-254-334c-35-33-75-61-117-85v-322h117v407z m-254-334l-293-407h117v293c-37-16-76-28-117-37v-256z m-293-407l351 0h118v712h-3c-19-91-59-173-115-243v-469z m351 0l-585 248c-40 6-79 16-118 29v-277h118v248z m-585 248l58-248h117v246c-26-3-53-5-81-5-12 0-24 1-36 1v-242z m58-248" horiz-adv-x="1000" />
<glyph glyph-name="verification5" unicode="&#xe81a;" d="m513 765h-22c-11 0-20 9-20 21v0c0 27-22 48-48 48h-1c-26 0-48-21-48-48v0c0-12-9-21-20-21h-22c-22 0-41-18-41-41v-1c0-22 19-41 41-41h181c22 0 41 19 41 41v1c0 23-19 41-41 41l0 0z m-90 0c-12 0-21 9-21 21s9 21 21 21 20-9 20-21-9-21-20-21l0 0z m92-800h-348c-30 0-55 24-55 55v662c0 31 25 56 41 56h112c-1-5-1-10-1-15 0-37 31-68 68-68h181c37 0 68 31 68 69 0 5 0 9-1 14h84c44 0 69-25 69-56v-414c-5 0-9 0-14 0-19 0-37-2-55-7v325h-483v-552h318c2-25 7-48 16-69l0 0z m204 262c-99 0-179-81-179-180 0-99 80-179 179-179 99 0 180 80 180 179 0 100-81 180-180 180l0 0z m118-143l-111-124c-5-6-13-9-20-9-6 0-13 2-18 6l-69 55c-12 10-14 27-4 39 9 12 27 14 39 4l48-39 93 105c10 11 28 12 39 2 12-10 13-27 3-39l0 0z m-242 267h-221c-7 0-14 6-14 14v14c0 7 7 13 14 13h221c8 0 14-6 14-13v-14c0-8-6-14-14-14l0 0z m0 124h-221c-7 0-14 6-14 14v14c0 7 7 14 14 14h221c8 0 14-7 14-14v-14c0-8-6-14-14-14l0 0z m-69-234h-152c-7 0-14 6-14 13v14c0 8 7 14 14 14h152c8 0 14-6 14-14v-14c0-7-6-13-14-13l0 0z m-28-125h-124c-7 0-14 7-14 14v14c0 8 7 14 14 14h124c8 0 14-6 14-14v-14c0-7-6-14-14-14l0 0z m-164 410l-51-57c-2-3-6-4-9-4-3 0-6 1-8 3l-32 25c-5 4-6 12-2 18 4 5 12 6 18 2l22-18 43 48c5 5 13 6 18 1 5-4 6-12 1-18l0 0z m0-122l-51-58c-2-2-6-4-9-4-3 0-6 1-8 3l-32 25c-5 5-6 13-2 18 4 5 12 6 18 2l22-18 43 48c5 6 13 6 18 1 5-4 6-12 1-17l0 0z m0-118l-51-57c-2-3-6-4-9-4-3 0-6 1-8 2l-32 26c-5 4-6 12-2 18 4 5 12 6 18 2l22-18 43 48c5 5 13 6 18 1 5-5 6-13 1-18l0 0z m0-118l-51-57c-2-3-6-5-9-5-3 0-6 1-8 3l-32 26c-5 4-6 12-2 17 4 6 12 7 18 2l22-17 43 48c5 5 13 6 18 1 5-5 6-13 1-18l0 0z m0 0" horiz-adv-x="1000" />
<glyph glyph-name="edit" unicode="&#xe81b;" d="m90 589l0-593 444 0 0 262 90 101 0-453-624 0 0 760 541 0-75-77-376 0z m749 180c35-34 32-88-3-124l-57-56 17 75-63 64-74-17 56 57c35 35 90 35 124 1z m-219-99c0 3 65 20 75 23l1 1 67-69c-4 0-23-75-23-75l-371-384-159-36-2 1 41 158z m-247-422l-45 46-35-6-23-22-10-40 46-45 39 9 23 23z" horiz-adv-x="864" />
<glyph glyph-name="trash-empty" unicode="&#xe81c;" d="m286 439v-321q0-8-5-13t-13-5h-36q-8 0-13 5t-5 13v321q0 8 5 13t13 5h36q8 0 13-5t5-13z m143 0v-321q0-8-5-13t-13-5h-36q-8 0-13 5t-5 13v321q0 8 5 13t13 5h36q8 0 13-5t5-13z m142 0v-321q0-8-5-13t-12-5h-36q-8 0-13 5t-5 13v321q0 8 5 13t13 5h36q7 0 12-5t5-13z m72-404v529h-500v-529q0-12 4-22t8-15 6-5h464q2 0 6 5t8 15 4 22z m-375 601h250l-27 65q-4 5-9 6h-177q-6-1-10-6z m518-18v-36q0-8-5-13t-13-5h-54v-529q0-46-26-80t-63-34h-464q-37 0-63 33t-27 79v531h-53q-8 0-13 5t-5 13v36q0 8 5 13t13 5h172l39 93q9 21 31 35t44 15h178q22 0 44-15t30-35l39-93h173q8 0 13-5t5-13z" horiz-adv-x="785.7" />
<glyph glyph-name="ccw-1" unicode="&#xe81d;" d="m532 736q170 0 289-120t119-290-119-290-289-120q-142 0-252 88l70 74q84-60 182-60 126 0 216 90t90 218-90 218-216 90q-124 0-214-87t-92-211l142 0-184-204-184 204 124 0q2 166 122 283t286 117z" horiz-adv-x="940" />
<glyph glyph-name="right-open-mini" unicode="&#xe81e;" d="m13 180l158 170-158 172q-26 26 0 48 26 26 48 0l192-194q24-26 0-50l-192-194q-22-26-48 0-26 22 0 48z" horiz-adv-x="265" />
<glyph glyph-name="left-open-mini" unicode="&#xe81f;" d="m252 180q26-26 0-48-26-26-48 0l-192 194q-24 24 0 50l192 194q22 26 48 0 26-22 0-48l-156-172z" horiz-adv-x="265" />
<glyph glyph-name="comment-empty" unicode="&#xe820;" d="m500 636q-114 0-213-39t-157-105-59-142q0-62 40-119t113-98l48-28-15-54q-13-50-39-95 85 35 154 95l24 21 31-3q39-5 73-5 114 0 213 39t157 105 59 142-59 142-157 105-213 39z m500-286q0-97-67-179t-182-130-251-48q-39 0-81 4-110-97-257-135-27-7-63-12h-3q-8 0-15 6t-9 15v1q-2 2 0 7t1 5 2 5l4 5t4 5 4 5q4 5 17 19t20 22 17 22 18 28 15 33 15 42q-88 50-138 123t-51 157q0 97 67 179t182 130 251 48 251-48 182-130 67-179z" horiz-adv-x="1000" />
<glyph glyph-name="cog" unicode="&#xe821;" d="m0 307l0 86q0 21 15 39t36 22l96 19q5 20 15 41l-53 80q-13 20-10 42t18 38l59 59q19 19 45 19 19 0 35-11l80-53q21 10 41 16l20 95q3 22 21 36t39 15l86 0q21 0 39-15t22-36l19-95q20-6 41-16l80 53q16 11 35 11 26 0 45-19l59-59q17-15 19-38t-11-42l-53-80q10-22 16-41l95-20q22-3 36-21t15-39l0-86q0-22-15-39t-36-22l-95-19q-6-20-16-41l53-80q13-20 11-42t-19-38l-59-59q-19-19-45-19-19 0-35 11l-80 53q-21-10-41-16l-19-95q-4-22-22-36t-39-15l-86 0q-21 0-39 14t-21 37l-20 95q-20 6-41 16l-80-53q-16-11-35-11-26 0-45 19l-59 59q-15 15-18 38t10 42l53 80q-10 21-15 41l-96 19q-22 4-36 22t-15 39z m63 0l95-19q35-6 47-40 6-17 14-35 15-31-4-60l-55-82 61-61 82 55q15 10 33 10 16 0 27-6 18-8 35-14 34-12 40-47l19-96 86 0 20 96q5 35 39 47 17 6 35 14 11 6 27 6 18 0 33-10l82-55 61 61-55 82q-19 29-4 60 8 18 14 35 12 34 47 40l95 19 0 86-95 20q-35 5-47 39-6 17-14 35-15 31 4 60l55 82-61 61-82-55q-15-10-33-10-16 0-27 6-18 8-35 14-34 12-39 47l-20 95-86 0-19-95q-6-35-40-47-17-6-35-14-11-6-27-6-18 0-33 10l-82 55-61-61 55-82q19-29 4-60-8-18-14-35-12-34-47-39l-95-20 0-86z m218 43q0 90 65 154t154 65 154-65 65-154-65-154-154-65-154 65-65 154z m28 0q0-80 55-136t136-55 136 55 55 136-55 136-136 55-136-55-55-136z m66 0q0 53 36 89t89 36 89-37 36-89-36-88-89-36-89 36-36 89z m31 0q0-39 28-66t66-28 66 28 28 66-28 66-66 28-66-28-28-66z" horiz-adv-x="1000" />
</font>
</defs>
</svg>
